<?xml version="1.0" encoding="UTF-8"?>
<!DOCTYPE svg PUBLIC "-//W3C//DTD SVG 1.1//EN" "http://www.w3.org/Graphics/SVG/1.1/DTD/svg11.dtd">
<svg xmlns="http://www.w3.org/2000/svg" version="1.1" width="1280px" height="1280px" style="shape-rendering:geometricPrecision; text-rendering:geometricPrecision; image-rendering:optimizeQuality; fill-rule:evenodd; clip-rule:evenodd" xmlns:xlink="http://www.w3.org/1999/xlink">
<g><path style="opacity:0.993" fill="#fefefe" d="M 537.5,50.5 C 584.849,47.3424 626.849,60.5091 663.5,90C 695.683,120.712 709.349,158.212 704.5,202.5C 737.226,213.595 763.393,233.262 783,261.5C 791.595,276.786 797.095,293.12 799.5,310.5C 825.509,311.79 851.509,313.624 877.5,316C 951.512,323.543 1017.51,350.209 1075.5,396C 1114.26,431.361 1136.76,475.194 1143,527.5C 1147.1,571.541 1132.94,608.374 1100.5,638C 1066.65,663.171 1028.99,671.505 987.5,663C 963.527,654.76 943.36,640.926 927,621.5C 921.04,613.872 914.707,606.538 908,599.5C 903.815,602.595 899.815,605.928 896,609.5C 893.895,613.583 892.562,617.917 892,622.5C 891.333,630.167 891.333,637.833 892,645.5C 896.866,690.418 900.866,735.418 904,780.5C 934.113,791.138 963.613,803.305 992.5,817C 1027.29,834.124 1057.79,856.957 1084,885.5C 1125.08,938.62 1130.42,995.287 1100,1055.5C 1066.81,1105.81 1020.31,1125.64 960.5,1115C 929.033,1107.36 902.2,1091.86 880,1068.5C 846.328,1123.13 798.161,1158.29 735.5,1174C 680.172,1188.49 624.506,1190.16 568.5,1179C 513.402,1164.39 468.236,1134.89 433,1090.5C 400.441,1043.53 390.108,991.86 402,935.5C 410.455,893.742 429.955,858.242 460.5,829C 511.512,781.085 572.012,753.252 642,745.5C 641.712,710.503 641.712,675.503 642,640.5C 646.952,599.809 659.786,561.809 680.5,526.5C 657.484,520.323 639.317,507.323 626,487.5C 621.149,479.776 617.982,471.443 616.5,462.5C 614.549,462.227 613.049,462.893 612,464.5C 551.783,618.286 476.449,763.619 386,900.5C 370.776,921.724 352.276,939.558 330.5,954C 293.31,974.41 254.977,976.743 215.5,961C 171.909,940.722 145.409,906.889 136,859.5C 128.535,824.381 131.868,790.381 146,757.5C 151.991,744.844 158.991,732.844 167,721.5C 227.946,649.673 279.446,571.339 321.5,486.5C 285.003,478.19 252.336,462.356 223.5,439C 174.605,393.308 156.772,337.474 170,271.5C 181.958,221.924 213.458,198.757 264.5,202C 271.731,203.224 278.731,205.224 285.5,208C 300.004,217.084 314.337,226.418 328.5,236C 342.225,244.53 356.892,250.863 372.5,255C 385.512,256.694 398.512,256.694 411.5,255C 413.906,245.877 416.239,236.71 418.5,227.5C 390.98,195.332 387.48,160.665 408,123.5C 423.289,102.447 442.456,85.9472 465.5,74C 488.09,61.4135 512.09,53.5802 537.5,50.5 Z"/></g>
<g><path style="opacity:1" fill="#000000" d="M 540.5,132.5 C 561.321,131.303 580.988,135.469 599.5,145C 616.726,154.953 624.226,169.786 622,189.5C 611.003,230.319 596.503,269.819 578.5,308C 594.413,304.584 609.079,298.25 622.5,289C 656.124,270.994 685.958,275.827 712,303.5C 721.601,321.432 718.768,336.932 703.5,350C 683.883,360.096 663.216,367.429 641.5,372C 611.371,378.524 581.371,385.358 551.5,392.5C 489.51,560.493 408.677,718.159 309,865.5C 300.826,875.016 290.993,882.183 279.5,887C 248.183,892.258 227.683,879.758 218,849.5C 211.285,826.446 213.618,804.446 225,783.5C 238.184,763.978 252.518,745.312 268,727.5C 343.263,629.026 403.097,521.359 447.5,404.5C 419.733,409.674 391.733,411.508 363.5,410C 336.582,407.249 311.582,398.916 288.5,385C 253.05,359.776 240.884,325.942 252,283.5C 282.032,307.101 315.532,324.268 352.5,335C 394.67,340.889 436.336,338.389 477.5,327.5C 485.105,301.417 491.938,275.084 498,248.5C 501.059,233.752 503.559,218.919 505.5,204C 504.177,193.025 499.177,184.025 490.5,177C 486.302,173.97 481.968,171.137 477.5,168.5C 479.267,165.23 481.6,162.397 484.5,160C 501.233,146.8 519.9,137.633 540.5,132.5 Z"/></g>
<g><path style="opacity:1" fill="#000000" d="M 786.5,393.5 C 817.591,393.79 848.591,395.623 879.5,399C 929.879,406.037 975.546,424.371 1016.5,454C 1040.98,474.181 1055.81,500.014 1061,531.5C 1063.9,567.935 1047.07,585.435 1010.5,584C 1004.98,581.411 999.984,578.078 995.5,574C 985.333,562.5 975.167,551 965,539.5C 934.776,510.001 901.61,506.501 865.5,529C 833.174,547.444 814.674,575.277 810,612.5C 809.333,625.167 809.333,637.833 810,650.5C 816.702,714.72 822.202,779.054 826.5,843.5C 874.745,855.97 921.078,873.47 965.5,896C 985.656,907.148 1003.82,920.981 1020,937.5C 1038.7,960.804 1041.7,986.137 1029,1013.5C 1021.84,1025.5 1011.34,1032.67 997.5,1035C 982.137,1037.33 968.137,1033.99 955.5,1025C 917.481,990.809 875.481,962.309 829.5,939.5C 829.217,1023.57 788.551,1075.74 707.5,1096C 669.067,1105.19 630.4,1106.53 591.5,1100C 552.798,1090.25 521.298,1069.75 497,1038.5C 481.333,1012.52 476.333,984.524 482,954.5C 487.436,925.745 501.269,901.912 523.5,883C 560.926,850.177 604.593,831.51 654.5,827C 678.507,826.357 702.507,826.524 726.5,827.5C 725.403,767.832 724.569,708.166 724,648.5C 733.671,579.932 768.504,528.765 828.5,495C 845.063,485.552 862.063,476.885 879.5,469C 867.248,461.914 854.248,456.581 840.5,453C 793.359,441.657 745.692,438.323 697.5,443C 714.569,423.285 735.569,409.285 760.5,401C 769.21,398.175 777.877,395.675 786.5,393.5 Z"/></g>
<g><path style="opacity:1" fill="#fdfdfd" d="M 654.5,904.5 C 680.031,903.521 705.364,905.187 730.5,909.5C 732.22,927.571 731.72,945.571 729,963.5C 723.853,985.982 710.686,1001.82 689.5,1011C 650.609,1026.65 611.276,1027.65 571.5,1014C 539.805,999.915 532.305,977.749 549,947.5C 558.569,934.937 570.736,925.77 585.5,920C 593.97,916.716 602.636,914.049 611.5,912C 625.932,909.252 640.265,906.752 654.5,904.5 Z"/></g>
</svg>
